<svg xmlns="http://www.w3.org/2000/svg" width="144" height="144"><defs><linearGradient id="a" x1="0%" x2="100%" y1="0%" y2="100%"><stop offset="0%" stop-color="#142DB3"/><stop offset="100%" stop-color="#1C40FF"/></linearGradient></defs><path fill="url(#a)" d="M0 0h144v144H0z"/><path fill="#EFEFEF" d="M59.652 104.4c-3.6 0-5.148 1.044-5.148 4.968v1.908h3.312V109.8c0-1.872.468-2.772 1.62-2.772 1.44 0 1.98.792 1.98 3.204 0 3.744-.9 4.716-3.6 10.008-1.296 2.52-2.592 4.752-3.816 6.912v3.492h11.088v-3.096h-7.452l3.96-7.38c2.412-4.5 3.204-5.292 3.204-9.828 0-3.96-.972-5.94-5.148-5.94Zm7.92 21.96v4.284h4.14v-4.284h-4.14Zm17.46-16.164c0-4.356-1.62-5.724-5.256-5.724-3.744 0-5.4 1.368-5.4 5.688v14.832c0 3.528.828 5.904 5.148 5.904 4.572 0 5.508-2.196 5.508-5.688v-15.012Zm-5.292-2.988c1.332 0 1.908.72 1.908 2.592v15.588c0 1.764-.612 2.808-2.016 2.808s-1.872-1.08-1.872-2.772v-15.228c0-2.268.792-2.988 1.98-2.988ZM60.698 20.21V54h4.68V39.258h3.837c5.99 0 6.786-2.995 6.786-9.313 0-6.693-.42-9.735-7.254-9.735h-8.05Zm4.68 3.932h2.855c2.714 0 3.135.702 3.135 5.1 0 5.757-.187 6.085-3.557 6.085h-2.433V24.142Zm13.385-3.932V54h4.633V20.21h-4.633ZM15.77 59.576c-4.867 0-7.488 2.621-7.488 7.722 0 4.82 2.106 7.114 6.552 11.654 2.808 2.854 3.79 4.492 3.79 7.16s-.748 4.025-2.995 4.025c-2.012 0-2.854-1.077-2.854-3.885V83.82h-4.54v4.071c0 3.791 2.714 6.038 7.02 6.038 5.288 0 7.816-2.48 7.816-8.33 0-4.68-1.358-6.225-6.131-11.28-3.183-3.37-4.119-4.914-4.119-7.44 0-2.434.843-3.651 2.855-3.651 1.404 0 2.621.515 2.621 3.323v2.34h4.4v-3.042c0-3.885-2.434-6.272-6.927-6.272Zm16.52.234L24.802 93.6h4.727l1.591-8.705h7.067l1.732 8.705h4.68l-6.927-33.79H32.29Zm2.48 4.961 2.762 16.333h-5.663l2.902-16.333Zm12.075-4.96V93.6h4.165V63.227L56.3 93.6h4.68l5.007-30.373V93.6h4.306V59.81h-7.207l-4.353 25.74-4.399-25.74h-7.488Zm26.863 0V93.6h4.68V78.858h3.838c5.99 0 6.786-2.995 6.786-9.313 0-6.693-.421-9.735-7.254-9.735h-8.05Zm4.68 3.93h2.855c2.714 0 3.136.703 3.136 5.102 0 5.756-.188 6.084-3.557 6.084h-2.434V63.742Zm13.525-3.93V93.6h12.543v-3.931H96.64V59.81h-4.727Zm14.742 0V93.6h12.683v-3.931h-8.003v-11.42h7.488v-3.93h-7.488V63.741h8.003V59.81h-12.683Zm21.762-.235c-4.867 0-7.488 2.621-7.488 7.722 0 4.82 2.106 7.114 6.552 11.654 2.808 2.854 3.791 4.492 3.791 7.16s-.749 4.025-2.995 4.025c-2.012 0-2.855-1.077-2.855-3.885V83.82h-4.54v4.071c0 3.791 2.715 6.038 7.02 6.038 5.289 0 7.816-2.48 7.816-8.33 0-4.68-1.357-6.225-6.13-11.28-3.183-3.37-4.119-4.914-4.119-7.44 0-2.434.842-3.651 2.855-3.651 1.404 0 2.62.515 2.62 3.323v2.34h4.4v-3.042c0-3.885-2.434-6.272-6.927-6.272Z"/></svg>
