<svg xmlns="http://www.w3.org/2000/svg" width="40" height="40" viewBox="0 0 40 40"><g id="actionImage" fill="none" fill-rule="evenodd" stroke="none" stroke-width="1"><text id="PI-SAMPLES" fill="#EFEFEF" font-family="UniversLTPro-UltCond, Univers LT Pro" font-size="13" font-style="condensed" font-weight="normal">
            <tspan x="15.6" y="10.4">PI</tspan>
            <tspan x="1.2" y="21.4">SAMPLES</tspan>
        </text><path id="2" fill="#EFEFEF" fill-rule="nonzero" d="M16.57,29 C15.57,29 15.14,29.29 15.14,30.38 L15.14,30.91 L16.06,30.91 L16.06,30.5 C16.06,29.98 16.19,29.73 16.51,29.73 C16.91,29.73 17.06,29.95 17.06,30.62 C17.06,31.66 16.81,31.93 16.06,33.4 C15.7,34.1 15.34,34.72 15,35.32 L15,36.29 L18.08,36.29 L18.08,35.43 L16.01,35.43 L17.11,33.38 C17.78,32.13 18,31.91 18,30.65 C18,29.55 17.73,29 16.57,29 Z M18.77,35.1 L18.77,36.29 L19.92,36.29 L19.92,35.1 L18.77,35.1 Z M23.62,30.61 C23.62,29.4 23.17,29.02 22.16,29.02 C21.12,29.02 20.66,29.4 20.66,30.6 L20.66,34.72 C20.66,35.7 20.89,36.36 22.09,36.36 C23.36,36.36 23.62,35.75 23.62,34.78 L23.62,30.61 Z M22.15,29.78 C22.52,29.78 22.68,29.98 22.68,30.5 L22.68,34.83 C22.68,35.32 22.51,35.61 22.12,35.61 C21.73,35.61 21.6,35.31 21.6,34.84 L21.6,30.61 C21.6,29.98 21.82,29.78 22.15,29.78 Z"/><path id="icon" fill="#EFEFEF" fill-rule="nonzero" d="M16.8605,5.614 L16.8605,15 L18.1605,15 L18.1605,10.905 L19.2265,10.905 C20.8905,10.905 21.1115,10.073 21.1115,8.318 C21.1115,6.459 20.9945,5.614 19.0965,5.614 L16.8605,5.614 Z M18.1605,6.706 L18.9535,6.706 C19.7075,6.706 19.8245,6.901 19.8245,8.123 C19.8245,9.722 19.7725,9.813 18.8365,9.813 L18.1605,9.813 L18.1605,6.706 Z M21.8785,5.614 L21.8785,15 L23.1655,15 L23.1655,5.614 L21.8785,5.614 Z M4.3805,16.549 C3.0285,16.549 2.3005,17.277 2.3005,18.694 C2.3005,20.033 2.8855,20.67 4.1205,21.931 C4.9005,22.724 5.1735,23.179 5.1735,23.92 C5.1735,24.661 4.9655,25.038 4.3415,25.038 C3.7825,25.038 3.5485,24.739 3.5485,23.959 L3.5485,23.283 L2.2875,23.283 L2.2875,24.414 C2.2875,25.467 3.0415,26.091 4.2375,26.091 C5.7065,26.091 6.4085,25.402 6.4085,23.777 C6.4085,22.477 6.0315,22.048 4.7055,20.644 C3.8215,19.708 3.5615,19.279 3.5615,18.577 C3.5615,17.901 3.7955,17.563 4.3545,17.563 C4.7445,17.563 5.0825,17.706 5.0825,18.486 L5.0825,19.136 L6.3045,19.136 L6.3045,18.291 C6.3045,17.212 5.6285,16.549 4.3805,16.549 Z M8.9695,16.614 L6.8895,26 L8.2025,26 L8.6445,23.582 L10.6075,23.582 L11.0885,26 L12.3885,26 L10.4645,16.614 L8.9695,16.614 Z M9.6585,17.992 L10.4255,22.529 L8.8525,22.529 L9.6585,17.992 Z M13.0125,16.614 L13.0125,26 L14.1695,26 L14.1695,17.563 L15.6385,26 L16.9385,26 L18.3295,17.563 L18.3295,26 L19.5255,26 L19.5255,16.614 L17.5235,16.614 L16.3145,23.764 L15.0925,16.614 L13.0125,16.614 Z M20.4745,16.614 L20.4745,26 L21.7745,26 L21.7745,21.905 L22.8405,21.905 C24.5045,21.905 24.7255,21.073 24.7255,19.318 C24.7255,17.459 24.6085,16.614 22.7105,16.614 L20.4745,16.614 Z M21.7745,17.706 L22.5675,17.706 C23.3215,17.706 23.4385,17.901 23.4385,19.123 C23.4385,20.722 23.3865,20.813 22.4505,20.813 L21.7745,20.813 L21.7745,17.706 Z M25.5315,16.614 L25.5315,26 L29.0155,26 L29.0155,24.908 L26.8445,24.908 L26.8445,16.614 L25.5315,16.614 Z M29.6265,16.614 L29.6265,26 L33.1495,26 L33.1495,24.908 L30.9265,24.908 L30.9265,21.736 L33.0065,21.736 L33.0065,20.644 L30.9265,20.644 L30.9265,17.706 L33.1495,17.706 L33.1495,16.614 L29.6265,16.614 Z M35.6715,16.549 C34.3195,16.549 33.5915,17.277 33.5915,18.694 C33.5915,20.033 34.1765,20.67 35.4115,21.931 C36.1915,22.724 36.4645,23.179 36.4645,23.92 C36.4645,24.661 36.2565,25.038 35.6325,25.038 C35.0735,25.038 34.8395,24.739 34.8395,23.959 L34.8395,23.283 L33.5785,23.283 L33.5785,24.414 C33.5785,25.467 34.3325,26.091 35.5285,26.091 C36.9975,26.091 37.6995,25.402 37.6995,23.777 C37.6995,22.477 37.3225,22.048 35.9965,20.644 C35.1125,19.708 34.8525,19.279 34.8525,18.577 C34.8525,17.901 35.0865,17.563 35.6455,17.563 C36.0355,17.563 36.3735,17.706 36.3735,18.486 L36.3735,19.136 L37.5955,19.136 L37.5955,18.291 C37.5955,17.212 36.9195,16.549 35.6715,16.549 Z"/></g></svg>