<svg xmlns="http://www.w3.org/2000/svg" width="40" height="40" viewBox="0 0 40 40"><g id="categor-samples" fill="none" fill-rule="evenodd" stroke="none" stroke-width="1"><g id="Group"><rect id="Rectangle" width="40" height="40" x="0" y="0" fill="#000" fill-opacity=".01"/><path id="large" fill="#D8D8D8" d="M12.4375,0 C13.3004449,-1.5852041e-16 14,0.699555078 14,1.5625 L14,14.4375 C14,15.3004449 13.3004449,16 12.4375,16 L1.5625,16 C0.699555078,16 1.05680274e-16,15.3004449 0,14.4375 L0,1.5625 C-1.05680274e-16,0.699555078 0.699555078,1.5852041e-16 1.5625,0 L12.4375,0 Z M12,2 L2,2 L2,14 L12,14 L12,2 Z" transform="translate(4 4)"/><path fill="#D8D8D8" d="M12.4375,0 C13.3004449,-1.5852041e-16 14,0.699555078 14,1.5625 L14,14.4375 C14,15.3004449 13.3004449,16 12.4375,16 L1.5625,16 C0.699555078,16 1.05680274e-16,15.3004449 0,14.4375 L0,1.5625 C-1.05680274e-16,0.699555078 0.699555078,1.5852041e-16 1.5625,0 L12.4375,0 Z M12,2 L2,2 L2,14 L12,14 L12,2 Z" transform="translate(22 20)"/><path id="small" fill="#D8D8D8" d="M14.4375,0 C15.3004449,-1.5852041e-16 16,0.699555078 16,1.5625 L16,10.4375 C16,11.3004449 15.3004449,12 14.4375,12 L1.5625,12 C0.699555078,12 1.05680274e-16,11.3004449 0,10.4375 L0,1.5625 C-1.05680274e-16,0.699555078 0.699555078,1.5852041e-16 1.5625,0 L14.4375,0 Z M14,2 L2,2 L2,10 L14,10 L14,2 Z" transform="translate(20 4)"/><path fill="#D8D8D8" d="M14.4375,0 C15.3004449,-1.5852041e-16 16,0.699555078 16,1.5625 L16,10.4375 C16,11.3004449 15.3004449,12 14.4375,12 L1.5625,12 C0.699555078,12 1.05680274e-16,11.3004449 0,10.4375 L0,1.5625 C-1.05680274e-16,0.699555078 0.699555078,1.5852041e-16 1.5625,0 L14.4375,0 Z M14,2 L2,2 L2,10 L14,10 L14,2 Z" transform="translate(4 24)"/></g></g></svg>