<?xml version="1.0" encoding="utf-8"?>
<!-- Generator: Adobe Illustrator 22.1.0, SVG Export Plug-In . SVG Version: 6.00 Build 0)  -->
<svg version="1.1" id="Layer_1" xmlns="http://www.w3.org/2000/svg" xmlns:xlink="http://www.w3.org/1999/xlink" x="0px" y="0px"
	 width="144px" height="144px" viewBox="0 0 144 144" style="enable-background:new 0 0 144 144;" xml:space="preserve">
<style type="text/css">
	.st0{clip-path:url(#SVGID_2_);}
	.st1{fill:#DB4437;}
	.st2{fill:url(#SVGID_3_);}
	.st3{clip-path:url(#SVGID_5_);fill:#3E2723;fill-opacity:0.15;}
	.st4{clip-path:url(#SVGID_7_);}
	.st5{fill:#0F9D58;}
	.st6{fill:url(#SVGID_8_);}
	.st7{clip-path:url(#SVGID_10_);fill:#263238;fill-opacity:0.15;}
	.st8{clip-path:url(#SVGID_12_);}
	.st9{clip-path:url(#SVGID_14_);}
	.st10{fill:#FFCD40;}
	.st11{fill:url(#SVGID_15_);}
	.st12{clip-path:url(#SVGID_17_);}
	.st13{fill:url(#SVGID_18_);}
	.st14{clip-path:url(#SVGID_20_);}
	.st15{clip-path:url(#SVGID_22_);}
	.st16{fill:url(#SVGID_23_);}
	.st17{clip-path:url(#SVGID_25_);fill:url(#SVGID_26_);}
	.st18{clip-path:url(#SVGID_28_);}
	.st19{clip-path:url(#SVGID_30_);}
	.st20{fill:url(#SVGID_31_);}
	.st21{clip-path:url(#SVGID_33_);fill:url(#SVGID_34_);}
	.st22{clip-path:url(#SVGID_36_);fill:url(#SVGID_37_);}
	.st23{clip-path:url(#SVGID_39_);}
	.st24{fill:#F1F1F1;}
	.st25{fill:#4285F4;}
	.st26{clip-path:url(#SVGID_41_);}
	.st27{fill:#3E2723;fill-opacity:0.2;}
	.st28{fill:#FFFFFF;fill-opacity:0.1;}
	.st29{opacity:0.1;fill:#3E2723;enable-background:new    ;}
	.st30{fill:#FFFFFF;fill-opacity:0.2;}
	.st31{clip-path:url(#SVGID_43_);}
	.st32{fill:#3E2723;fill-opacity:0.15;}
	.st33{fill:url(#SVGID_44_);}
</style>
<g>
	<defs>
		<circle id="SVGID_1_" cx="72" cy="72" r="72"/>
	</defs>
	<clipPath id="SVGID_2_">
		<use xlink:href="#SVGID_1_"  style="overflow:visible;"/>
	</clipPath>
	<g transform="translate(-7 -7)" class="st0">
		<path class="st1" d="M18.43,7v88.364h32.228L79,46.273h72V7H18.43z"/>
		
			<linearGradient id="SVGID_3_" gradientUnits="userSpaceOnUse" x1="31.4573" y1="90.4451" x2="74.4118" y2="115.5363" gradientTransform="matrix(1 0 0 -1 -7 152.28)">
			<stop  offset="0" style="stop-color:#A52714;stop-opacity:0.6"/>
			<stop  offset="0.66" style="stop-color:#A52714;stop-opacity:0"/>
		</linearGradient>
		<path class="st2" d="M18.43,7v88.364h32.228L79,46.273h72V7H18.43z"/>
	</g>
</g>
<g>
	<defs>
		<circle id="SVGID_4_" cx="72" cy="72" r="72"/>
	</defs>
	<clipPath id="SVGID_5_">
		<use xlink:href="#SVGID_4_"  style="overflow:visible;"/>
	</clipPath>
	<path class="st3" d="M44.435,88.077l-32.588-55.89l-0.475,0.818l32.351,55.473L44.435,88.077z"/>
</g>
<g>
	<defs>
		<circle id="SVGID_6_" cx="72" cy="72" r="72"/>
	</defs>
	<clipPath id="SVGID_7_">
		<use xlink:href="#SVGID_6_"  style="overflow:visible;"/>
	</clipPath>
	<g transform="translate(-7 -7)" class="st4">
		<path class="st5" d="M7,151h68.539l31.811-31.811V95.364H50.658L7,20.484L7,151z"/>
		
			<linearGradient id="SVGID_8_" gradientUnits="userSpaceOnUse" x1="98.1665" y1="17.2348" x2="50.4403" y2="45.192" gradientTransform="matrix(1 0 0 -1 -7 152.28)">
			<stop  offset="0" style="stop-color:#055524;stop-opacity:0.4"/>
			<stop  offset="0.33" style="stop-color:#055524;stop-opacity:0"/>
		</linearGradient>
		<path class="st6" d="M7,151h68.539l31.811-31.811V95.364H50.658L7,20.484L7,151z"/>
	</g>
</g>
<g>
	<defs>
		<circle id="SVGID_9_" cx="72" cy="72" r="72"/>
	</defs>
	<clipPath id="SVGID_10_">
		<use xlink:href="#SVGID_9_"  style="overflow:visible;"/>
	</clipPath>
	<path class="st7" d="M99.687,89.452l-0.679-0.393L67.598,144h0.941l31.173-54.524L99.687,89.452z"/>
</g>
<g>
	<defs>
		<circle id="SVGID_11_" cx="72" cy="72" r="72"/>
	</defs>
	<clipPath id="SVGID_12_">
		<use xlink:href="#SVGID_11_"  style="overflow:visible;"/>
	</clipPath>
	<g class="st8">
		<g transform="translate(-7 -7)">
			<defs>
				<polygon id="SVGID_13_" points="7,151 75.539,151 107.35,119.189 107.35,95.364 50.658,95.364 7,20.484 				"/>
			</defs>
			<clipPath id="SVGID_14_">
				<use xlink:href="#SVGID_13_"  style="overflow:visible;"/>
			</clipPath>
			<g class="st9">
				<path class="st10" d="M79,46.273l28.35,49.091L75.539,151H151V46.273H79z"/>
				
					<linearGradient id="SVGID_15_" gradientUnits="userSpaceOnUse" x1="107.1539" y1="111.0758" x2="119.173" y2="58.4454" gradientTransform="matrix(1 0 0 -1 -7 152.28)">
					<stop  offset="0" style="stop-color:#EA6100;stop-opacity:0.3"/>
					<stop  offset="0.66" style="stop-color:#EA6100;stop-opacity:0"/>
				</linearGradient>
				<path class="st11" d="M79,46.273l28.35,49.091L75.539,151H151V46.273H79z"/>
			</g>
		</g>
		<g>
			<defs>
				<circle id="SVGID_16_" cx="79" cy="79" r="72"/>
			</defs>
			<clipPath id="SVGID_17_">
				<use xlink:href="#SVGID_16_"  style="overflow:visible;"/>
			</clipPath>
			<g transform="translate(-7 -7)" class="st12">
				<path class="st10" d="M86,53.273l28.35,49.091L82.539,158H158V53.273H86z"/>
				
					<linearGradient id="SVGID_18_" gradientUnits="userSpaceOnUse" x1="114.1539" y1="118.0758" x2="126.173" y2="65.4454" gradientTransform="matrix(1 0 0 -1 -7 166.28)">
					<stop  offset="0" style="stop-color:#EA6100;stop-opacity:0.3"/>
					<stop  offset="0.66" style="stop-color:#EA6100;stop-opacity:0"/>
				</linearGradient>
				<path class="st13" d="M86,53.273l28.35,49.091L82.539,158H158V53.273H86z"/>
			</g>
		</g>
		<g>
			<defs>
				<circle id="SVGID_19_" cx="79" cy="79" r="72"/>
			</defs>
			<clipPath id="SVGID_20_">
				<use xlink:href="#SVGID_19_"  style="overflow:visible;"/>
			</clipPath>
			<g class="st14">
				<g transform="translate(-7 -7)">
					<defs>
						<polygon id="SVGID_21_" points="86,53.273 114.35,102.364 82.539,158 158,158 158,53.273 						"/>
					</defs>
					<clipPath id="SVGID_22_">
						<use xlink:href="#SVGID_21_"  style="overflow:visible;"/>
					</clipPath>
					<g class="st15">
						<path class="st1" d="M25.43,14v88.364h32.228L86,53.273h72V14H25.43z"/>
						
							<linearGradient id="SVGID_23_" gradientUnits="userSpaceOnUse" x1="38.4573" y1="97.4451" x2="81.4118" y2="122.5363" gradientTransform="matrix(1 0 0 -1 -7 166.28)">
							<stop  offset="0" style="stop-color:#A52714;stop-opacity:0.6"/>
							<stop  offset="0.66" style="stop-color:#A52714;stop-opacity:0"/>
						</linearGradient>
						<path class="st16" d="M25.43,14v88.364h32.228L86,53.273h72V14H25.43z"/>
					</g>
				</g>
				<g>
					<defs>
						<circle id="SVGID_24_" cx="86" cy="86" r="72"/>
					</defs>
					<clipPath id="SVGID_25_">
						<use xlink:href="#SVGID_24_"  style="overflow:visible;"/>
					</clipPath>
					
						<radialGradient id="SVGID_26_" cx="665.8745" cy="113.0498" r="68.7911" gradientTransform="matrix(1 0 0 -1 -583 166.28)" gradientUnits="userSpaceOnUse">
						<stop  offset="0" style="stop-color:#3E2723;stop-opacity:0.2"/>
						<stop  offset="1" style="stop-color:#3E2723;stop-opacity:0"/>
					</radialGradient>
					<path class="st17" d="M86,53.273v17.141l64.145-17.141L86,53.273z"/>
				</g>
				<g>
					<defs>
						<circle id="SVGID_27_" cx="86" cy="86" r="72"/>
					</defs>
					<clipPath id="SVGID_28_">
						<use xlink:href="#SVGID_27_"  style="overflow:visible;"/>
					</clipPath>
					<g class="st18">
						<g transform="translate(-7 -7)">
							<defs>
								<polygon id="SVGID_29_" points="32.43,21 32.43,54.005 64.658,109.364 93,60.273 165,60.273 165,21 								"/>
							</defs>
							<clipPath id="SVGID_30_">
								<use xlink:href="#SVGID_29_"  style="overflow:visible;"/>
							</clipPath>
							<g class="st19">
								<path class="st5" d="M21,165h68.539l31.811-31.811v-23.825H64.658L21,34.484L21,165z"/>
								
									<linearGradient id="SVGID_31_" gradientUnits="userSpaceOnUse" x1="112.1665" y1="31.2348" x2="64.4403" y2="59.192" gradientTransform="matrix(1 0 0 -1 -7 180.28)">
									<stop  offset="0" style="stop-color:#055524;stop-opacity:0.4"/>
									<stop  offset="0.33" style="stop-color:#055524;stop-opacity:0"/>
								</linearGradient>
								<path class="st20" d="M21,165h68.539l31.811-31.811v-23.825H64.658L21,34.484L21,165z"/>
							</g>
						</g>
						<g>
							<defs>
								<circle id="SVGID_32_" cx="93" cy="93" r="72"/>
							</defs>
							<clipPath id="SVGID_33_">
								<use xlink:href="#SVGID_32_"  style="overflow:visible;"/>
							</clipPath>
							
								<radialGradient id="SVGID_34_" cx="615.3564" cy="126.1273" r="63.8542" gradientTransform="matrix(1 0 0 -1 -583 180.28)" gradientUnits="userSpaceOnUse">
								<stop  offset="0" style="stop-color:#3E2723;stop-opacity:0.2"/>
								<stop  offset="1" style="stop-color:#3E2723;stop-opacity:0"/>
							</radialGradient>
							<path class="st21" d="M32.43,54.095l46.841,46.833l-14.613,8.435L32.43,54.095z"/>
						</g>
						<g>
							<defs>
								<circle id="SVGID_35_" cx="93" cy="93" r="72"/>
							</defs>
							<clipPath id="SVGID_36_">
								<use xlink:href="#SVGID_35_"  style="overflow:visible;"/>
							</clipPath>
							
								<radialGradient id="SVGID_37_" cx="675.8691" cy="87.1671" r="71.8936" gradientTransform="matrix(1 0 0 -1 -583 180.28)" gradientUnits="userSpaceOnUse">
								<stop  offset="0" style="stop-color:#263238;stop-opacity:0.2"/>
								<stop  offset="1" style="stop-color:#263238;stop-opacity:0"/>
							</radialGradient>
							<path class="st22" d="M89.588,164.91l17.149-63.982l14.613,8.435L89.588,164.91z"/>
						</g>
						<g>
							<defs>
								<circle id="SVGID_38_" cx="93" cy="93" r="72"/>
							</defs>
							<clipPath id="SVGID_39_">
								<use xlink:href="#SVGID_38_"  style="overflow:visible;"/>
							</clipPath>
							<g transform="translate(-7 -7)" class="st23">
								<circle class="st24" cx="100" cy="100" r="32.727"/>
								<circle class="st25" cx="100" cy="100" r="26.182"/>
							</g>
						</g>
						<g>
							<defs>
								<circle id="SVGID_40_" cx="93" cy="93" r="72"/>
							</defs>
							<clipPath id="SVGID_41_">
								<use xlink:href="#SVGID_40_"  style="overflow:visible;"/>
							</clipPath>
							<g transform="translate(-7 -7)" class="st26">
								<path class="st27" d="M100,66.455c-18.074,0-32.727,14.654-32.727,32.727V100c0-18.074,14.654-32.727,32.727-32.727h72
									v-0.818H100z"/>
								<path class="st28" d="M128.309,116.364c-5.662,9.769-16.208,16.364-28.309,16.364c-12.109,0-22.655-6.595-28.317-16.364
									H71.65L28,41.484v0.818l43.658,74.88h0.033c5.662,9.769,16.208,16.364,28.317,16.364c12.101,0,22.647-6.586,28.309-16.364
									h0.041v-0.818H128.309L128.309,116.364z"/>
								<path class="st29" d="M100.818,67.273c-0.139,0-0.27,0.016-0.409,0.025c17.885,0.221,32.318,14.768,32.318,32.703
									s-14.433,32.482-32.318,32.703c0.139,0,0.27,0.025,0.409,0.025c18.074,0,32.727-14.654,32.727-32.727
									S118.892,67.273,100.818,67.273z"/>
								<path class="st30" d="M128.636,117.452c2.782-4.811,4.394-10.375,4.394-16.331c0-3.453-0.54-6.775-1.53-9.892
									c0.777,2.798,1.227,5.735,1.227,8.779c0,5.956-1.612,11.52-4.394,16.331l0.016,0.033l-31.811,55.636h0.949l31.165-54.524
									C128.653,117.485,128.636,117.452,128.636,117.452z"/>
							</g>
						</g>
						<g>
							<defs>
								<circle id="SVGID_42_" cx="93" cy="93" r="72"/>
							</defs>
							<clipPath id="SVGID_43_">
								<use xlink:href="#SVGID_42_"  style="overflow:visible;"/>
							</clipPath>
							<g transform="translate(-7 -7)" class="st31">
								<path class="st30" d="M100,28.818c39.625,0,71.771,32.015,71.992,71.591c0-0.139,0.008-0.27,0.008-0.409
									c0-39.764-32.236-72-72-72s-72,32.236-72,72c0,0.139,0.008,0.27,0.008,0.409C28.229,60.834,60.375,28.818,100,28.818
									L100,28.818z"/>
								<path class="st32" d="M100,171.182c39.625,0,71.771-32.015,71.992-71.591c0,0.139,0.008,0.27,0.008,0.409
									c0,39.764-32.236,72-72,72s-72-32.236-72-72c0-0.139,0.008-0.27,0.008-0.409C28.229,139.166,60.375,171.182,100,171.182
									L100,171.182z"/>
							</g>
						</g>
						
							<radialGradient id="SVGID_44_" cx="49.5067" cy="139.6322" r="144.6136" gradientTransform="matrix(1 0 0 -1 -7 180.28)" gradientUnits="userSpaceOnUse">
							<stop  offset="0" style="stop-color:#FFFFFF;stop-opacity:0.1"/>
							<stop  offset="1" style="stop-color:#FFFFFF;stop-opacity:0"/>
						</radialGradient>
						<circle class="st33" cx="93" cy="93" r="72"/>
					</g>
				</g>
			</g>
		</g>
	</g>
</g>
</svg>
