<?xml version="1.0" encoding="utf-8"?>
<!-- Generator: Adobe Illustrator 22.1.0, SVG Export Plug-In . SVG Version: 6.00 Build 0)  -->
<svg version="1.1" id="Layer_1" xmlns="http://www.w3.org/2000/svg" xmlns:xlink="http://www.w3.org/1999/xlink" x="0px" y="0px"
	 viewBox="0 0 144 144" style="enable-background:new 0 0 144 144;" xml:space="preserve">
<style type="text/css">
	.st0{clip-path:url(#SVGID_2_);}
	.st1{fill:#DB4437;}
	.st2{fill:url(#SVGID_3_);}
	.st3{clip-path:url(#SVGID_5_);fill:#3E2723;fill-opacity:0.15;}
	.st4{clip-path:url(#SVGID_7_);}
	.st5{fill:#0F9D58;}
	.st6{fill:url(#SVGID_8_);}
	.st7{clip-path:url(#SVGID_10_);fill:#263238;fill-opacity:0.15;}
	.st8{clip-path:url(#SVGID_12_);}
	.st9{clip-path:url(#SVGID_14_);}
	.st10{fill:#FFCD40;}
	.st11{fill:url(#SVGID_15_);}
	.st12{clip-path:url(#SVGID_17_);}
	.st13{fill:url(#SVGID_18_);}
	.st14{clip-path:url(#SVGID_20_);}
	.st15{clip-path:url(#SVGID_22_);}
	.st16{fill:url(#SVGID_23_);}
	.st17{clip-path:url(#SVGID_25_);fill:url(#SVGID_26_);}
	.st18{clip-path:url(#SVGID_28_);}
	.st19{clip-path:url(#SVGID_30_);}
	.st20{fill:url(#SVGID_31_);}
	.st21{clip-path:url(#SVGID_33_);fill:url(#SVGID_34_);}
	.st22{clip-path:url(#SVGID_36_);fill:url(#SVGID_37_);}
	.st23{clip-path:url(#SVGID_39_);}
	.st24{fill:#F1F1F1;}
	.st25{fill:#4285F4;}
	.st26{clip-path:url(#SVGID_41_);}
	.st27{fill:#3E2723;fill-opacity:0.2;}
	.st28{fill:#FFFFFF;fill-opacity:0.1;}
	.st29{opacity:0.1;fill:#3E2723;enable-background:new    ;}
	.st30{fill:#FFFFFF;fill-opacity:0.2;}
	.st31{clip-path:url(#SVGID_43_);}
	.st32{fill:#3E2723;fill-opacity:0.15;}
	.st33{fill:url(#SVGID_44_);}
</style>
<g>
	<defs>
		<circle id="SVGID_1_" cx="72" cy="72" r="72"/>
	</defs>
	<clipPath id="SVGID_2_">
		<use xlink:href="#SVGID_1_"  style="overflow:visible;"/>
	</clipPath>
	<g transform="translate(-7 -7)" class="st0">
		<path class="st1" d="M18.4,7v88.4h32.2L79,46.3h72V7H18.4z"/>
		
			<linearGradient id="SVGID_3_" gradientUnits="userSpaceOnUse" x1="31.4573" y1="90.4451" x2="74.4118" y2="115.5363" gradientTransform="matrix(1 0 0 -1 -7 152.28)">
			<stop  offset="0" style="stop-color:#A52714;stop-opacity:0.6"/>
			<stop  offset="0.66" style="stop-color:#A52714;stop-opacity:0"/>
		</linearGradient>
		<path class="st2" d="M18.4,7v88.4h32.2L79,46.3h72V7H18.4z"/>
	</g>
</g>
<g>
	<defs>
		<circle id="SVGID_4_" cx="72" cy="72" r="72"/>
	</defs>
	<clipPath id="SVGID_5_">
		<use xlink:href="#SVGID_4_"  style="overflow:visible;"/>
	</clipPath>
	<path class="st3" d="M44.4,88.1L11.8,32.2L11.4,33l32.4,55.5L44.4,88.1z"/>
</g>
<g>
	<defs>
		<circle id="SVGID_6_" cx="72" cy="72" r="72"/>
	</defs>
	<clipPath id="SVGID_7_">
		<use xlink:href="#SVGID_6_"  style="overflow:visible;"/>
	</clipPath>
	<g transform="translate(-7 -7)" class="st4">
		<path class="st5" d="M7,151h68.5l31.8-31.8V95.4H50.7L7,20.5L7,151z"/>
		
			<linearGradient id="SVGID_8_" gradientUnits="userSpaceOnUse" x1="98.1665" y1="17.2348" x2="50.4403" y2="45.192" gradientTransform="matrix(1 0 0 -1 -7 152.28)">
			<stop  offset="0" style="stop-color:#055524;stop-opacity:0.4"/>
			<stop  offset="0.33" style="stop-color:#055524;stop-opacity:0"/>
		</linearGradient>
		<path class="st6" d="M7,151h68.5l31.8-31.8V95.4H50.7L7,20.5L7,151z"/>
	</g>
</g>
<g>
	<defs>
		<circle id="SVGID_9_" cx="72" cy="72" r="72"/>
	</defs>
	<clipPath id="SVGID_10_">
		<use xlink:href="#SVGID_9_"  style="overflow:visible;"/>
	</clipPath>
	<path class="st7" d="M99.7,89.5L99,89.1L67.6,144h0.9L99.7,89.5L99.7,89.5z"/>
</g>
<g>
	<defs>
		<circle id="SVGID_11_" cx="72" cy="72" r="72"/>
	</defs>
	<clipPath id="SVGID_12_">
		<use xlink:href="#SVGID_11_"  style="overflow:visible;"/>
	</clipPath>
	<g class="st8">
		<g transform="translate(-7 -7)">
			<defs>
				<polygon id="SVGID_13_" points="7,151 75.5,151 107.3,119.2 107.3,95.4 50.7,95.4 7,20.5 				"/>
			</defs>
			<clipPath id="SVGID_14_">
				<use xlink:href="#SVGID_13_"  style="overflow:visible;"/>
			</clipPath>
			<g class="st9">
				<path class="st10" d="M79,46.3l28.3,49.1L75.5,151H151V46.3H79z"/>
				
					<linearGradient id="SVGID_15_" gradientUnits="userSpaceOnUse" x1="107.1539" y1="111.0758" x2="119.173" y2="58.4454" gradientTransform="matrix(1 0 0 -1 -7 152.28)">
					<stop  offset="0" style="stop-color:#EA6100;stop-opacity:0.3"/>
					<stop  offset="0.66" style="stop-color:#EA6100;stop-opacity:0"/>
				</linearGradient>
				<path class="st11" d="M79,46.3l28.3,49.1L75.5,151H151V46.3H79z"/>
			</g>
		</g>
		<g>
			<defs>
				<circle id="SVGID_16_" cx="79" cy="79" r="72"/>
			</defs>
			<clipPath id="SVGID_17_">
				<use xlink:href="#SVGID_16_"  style="overflow:visible;"/>
			</clipPath>
			<g transform="translate(-7 -7)" class="st12">
				<path class="st10" d="M86,53.3l28.3,49.1L82.5,158H158V53.3H86z"/>
				
					<linearGradient id="SVGID_18_" gradientUnits="userSpaceOnUse" x1="114.1539" y1="118.0758" x2="126.173" y2="65.4454" gradientTransform="matrix(1 0 0 -1 -7 166.28)">
					<stop  offset="0" style="stop-color:#EA6100;stop-opacity:0.3"/>
					<stop  offset="0.66" style="stop-color:#EA6100;stop-opacity:0"/>
				</linearGradient>
				<path class="st13" d="M86,53.3l28.3,49.1L82.5,158H158V53.3H86z"/>
			</g>
		</g>
		<g>
			<defs>
				<circle id="SVGID_19_" cx="79" cy="79" r="72"/>
			</defs>
			<clipPath id="SVGID_20_">
				<use xlink:href="#SVGID_19_"  style="overflow:visible;"/>
			</clipPath>
			<g class="st14">
				<g transform="translate(-7 -7)">
					<defs>
						<polygon id="SVGID_21_" points="86,53.3 114.3,102.4 82.5,158 158,158 158,53.3 						"/>
					</defs>
					<clipPath id="SVGID_22_">
						<use xlink:href="#SVGID_21_"  style="overflow:visible;"/>
					</clipPath>
					<g class="st15">
						<path class="st1" d="M25.4,14v88.4h32.2L86,53.3h72V14H25.4z"/>
						
							<linearGradient id="SVGID_23_" gradientUnits="userSpaceOnUse" x1="38.4573" y1="97.4451" x2="81.4118" y2="122.5363" gradientTransform="matrix(1 0 0 -1 -7 166.28)">
							<stop  offset="0" style="stop-color:#A52714;stop-opacity:0.6"/>
							<stop  offset="0.66" style="stop-color:#A52714;stop-opacity:0"/>
						</linearGradient>
						<path class="st16" d="M25.4,14v88.4h32.2L86,53.3h72V14H25.4z"/>
					</g>
				</g>
				<g>
					<defs>
						<circle id="SVGID_24_" cx="86" cy="86" r="72"/>
					</defs>
					<clipPath id="SVGID_25_">
						<use xlink:href="#SVGID_24_"  style="overflow:visible;"/>
					</clipPath>
					
						<radialGradient id="SVGID_26_" cx="665.8745" cy="113.0498" r="68.7911" gradientTransform="matrix(1 0 0 -1 -583 166.28)" gradientUnits="userSpaceOnUse">
						<stop  offset="0" style="stop-color:#3E2723;stop-opacity:0.2"/>
						<stop  offset="1" style="stop-color:#3E2723;stop-opacity:0"/>
					</radialGradient>
					<path class="st17" d="M86,53.3v17.1l64.1-17.1L86,53.3z"/>
				</g>
				<g>
					<defs>
						<circle id="SVGID_27_" cx="86" cy="86" r="72"/>
					</defs>
					<clipPath id="SVGID_28_">
						<use xlink:href="#SVGID_27_"  style="overflow:visible;"/>
					</clipPath>
					<g class="st18">
						<g transform="translate(-7 -7)">
							<defs>
								<polygon id="SVGID_29_" points="32.4,21 32.4,54 64.7,109.4 93,60.3 165,60.3 165,21 								"/>
							</defs>
							<clipPath id="SVGID_30_">
								<use xlink:href="#SVGID_29_"  style="overflow:visible;"/>
							</clipPath>
							<g class="st19">
								<path class="st5" d="M21,165h68.5l31.8-31.8v-23.8H64.7L21,34.5L21,165z"/>
								
									<linearGradient id="SVGID_31_" gradientUnits="userSpaceOnUse" x1="112.1665" y1="31.2348" x2="64.4403" y2="59.192" gradientTransform="matrix(1 0 0 -1 -7 180.28)">
									<stop  offset="0" style="stop-color:#055524;stop-opacity:0.4"/>
									<stop  offset="0.33" style="stop-color:#055524;stop-opacity:0"/>
								</linearGradient>
								<path class="st20" d="M21,165h68.5l31.8-31.8v-23.8H64.7L21,34.5L21,165z"/>
							</g>
						</g>
						<g>
							<defs>
								<circle id="SVGID_32_" cx="93" cy="93" r="72"/>
							</defs>
							<clipPath id="SVGID_33_">
								<use xlink:href="#SVGID_32_"  style="overflow:visible;"/>
							</clipPath>
							
								<radialGradient id="SVGID_34_" cx="615.3564" cy="126.1273" r="63.8542" gradientTransform="matrix(1 0 0 -1 -583 180.28)" gradientUnits="userSpaceOnUse">
								<stop  offset="0" style="stop-color:#3E2723;stop-opacity:0.2"/>
								<stop  offset="1" style="stop-color:#3E2723;stop-opacity:0"/>
							</radialGradient>
							<path class="st21" d="M32.4,54.1l46.8,46.8l-14.6,8.4L32.4,54.1z"/>
						</g>
						<g>
							<defs>
								<circle id="SVGID_35_" cx="93" cy="93" r="72"/>
							</defs>
							<clipPath id="SVGID_36_">
								<use xlink:href="#SVGID_35_"  style="overflow:visible;"/>
							</clipPath>
							
								<radialGradient id="SVGID_37_" cx="675.8691" cy="87.1671" r="71.8936" gradientTransform="matrix(1 0 0 -1 -583 180.28)" gradientUnits="userSpaceOnUse">
								<stop  offset="0" style="stop-color:#263238;stop-opacity:0.2"/>
								<stop  offset="1" style="stop-color:#263238;stop-opacity:0"/>
							</radialGradient>
							<path class="st22" d="M89.6,164.9l17.1-64l14.6,8.4L89.6,164.9z"/>
						</g>
						<g>
							<defs>
								<circle id="SVGID_38_" cx="93" cy="93" r="72"/>
							</defs>
							<clipPath id="SVGID_39_">
								<use xlink:href="#SVGID_38_"  style="overflow:visible;"/>
							</clipPath>
							<g transform="translate(-7 -7)" class="st23">
								<circle class="st24" cx="100" cy="100" r="32.7"/>
								<circle class="st25" cx="100" cy="100" r="26.2"/>
							</g>
						</g>
						<g>
							<defs>
								<circle id="SVGID_40_" cx="93" cy="93" r="72"/>
							</defs>
							<clipPath id="SVGID_41_">
								<use xlink:href="#SVGID_40_"  style="overflow:visible;"/>
							</clipPath>
							<g transform="translate(-7 -7)" class="st26">
								<path class="st27" d="M100,66.5c-18.1,0-32.7,14.7-32.7,32.7v0.8c0-18.1,14.7-32.7,32.7-32.7h72v-0.8H100z"/>
								<path class="st28" d="M128.3,116.4c-5.7,9.8-16.2,16.4-28.3,16.4c-12.1,0-22.7-6.6-28.3-16.4h0L28,41.5v0.8l43.7,74.9h0
									c5.7,9.8,16.2,16.4,28.3,16.4c12.1,0,22.6-6.6,28.3-16.4h0L128.3,116.4L128.3,116.4L128.3,116.4z"/>
								<path class="st29" d="M100.8,67.3c-0.1,0-0.3,0-0.4,0c17.9,0.2,32.3,14.8,32.3,32.7s-14.4,32.5-32.3,32.7c0.1,0,0.3,0,0.4,0
									c18.1,0,32.7-14.7,32.7-32.7S118.9,67.3,100.8,67.3z"/>
								<path class="st30" d="M128.6,117.5c2.8-4.8,4.4-10.4,4.4-16.3c0-3.5-0.5-6.8-1.5-9.9c0.8,2.8,1.2,5.7,1.2,8.8
									c0,6-1.6,11.5-4.4,16.3l0,0L96.5,172h0.9L128.6,117.5C128.7,117.5,128.6,117.5,128.6,117.5z"/>
							</g>
						</g>
						<g>
							<defs>
								<circle id="SVGID_42_" cx="93" cy="93" r="72"/>
							</defs>
							<clipPath id="SVGID_43_">
								<use xlink:href="#SVGID_42_"  style="overflow:visible;"/>
							</clipPath>
							<g transform="translate(-7 -7)" class="st31">
								<path class="st30" d="M100,28.8c39.6,0,71.8,32,72,71.6c0-0.1,0-0.3,0-0.4c0-39.8-32.2-72-72-72s-72,32.2-72,72
									c0,0.1,0,0.3,0,0.4C28.2,60.8,60.4,28.8,100,28.8L100,28.8z"/>
								<path class="st32" d="M100,171.2c39.6,0,71.8-32,72-71.6c0,0.1,0,0.3,0,0.4c0,39.8-32.2,72-72,72s-72-32.2-72-72
									c0-0.1,0-0.3,0-0.4C28.2,139.2,60.4,171.2,100,171.2L100,171.2z"/>
							</g>
						</g>
						
							<radialGradient id="SVGID_44_" cx="49.5067" cy="139.6322" r="144.6136" gradientTransform="matrix(1 0 0 -1 -7 180.28)" gradientUnits="userSpaceOnUse">
							<stop  offset="0" style="stop-color:#FFFFFF;stop-opacity:0.1"/>
							<stop  offset="1" style="stop-color:#FFFFFF;stop-opacity:0"/>
						</radialGradient>
						<circle class="st33" cx="93" cy="93" r="72"/>
					</g>
				</g>
			</g>
		</g>
	</g>
</g>
</svg>
