<svg xmlns="http://www.w3.org/2000/svg" width="20" height="20" viewBox="0 0 20 20">
  <g fill="none" fill-rule="evenodd">
    <circle cx="10" cy="10" r="8" fill="#999" fill-rule="nonzero"/>
    <path fill="#EFEFEF" d="M6.77783203,7.65332031 C6.77783203,7.25130007 6.90689975,6.8439962 7.16503906,6.43139648 C7.42317837,6.01879677 7.79980221,5.67708469 8.29492188,5.40625 C8.79004154,5.13541531 9.36767248,5 10.027832,5 C10.6414419,5 11.1831031,5.11319874 11.652832,5.33959961 C12.1225609,5.56600048 12.4854317,5.87385873 12.7414551,6.26318359 C12.9974785,6.65250846 13.1254883,7.07568131 13.1254883,7.53271484 C13.1254883,8.82415771 11.0021973,9.59857178 10.7832031,11.4746094 C10.7027991,11.9147157 10.4498423,12.1700818 10.027832,12.1347656 C8.29492188,11.9897461 9.80755615,9.79199219 10.3750916,9.1321106 C10.942627,8.472229 11.652832,7.53271484 11.0021973,6.68847656 C10.7006836,6.37695313 10.4256205,6.33935547 10.027832,6.33935547 C9.56233491,6.33935547 9.2195649,6.45678594 8.99951172,6.69165039 C8.77945854,6.92651485 8.59326248,7.27245865 8.44091797,7.72949219 C8.29703704,8.20768468 8.02409055,8.44677734 7.62207031,8.44677734 C7.38508996,8.44677734 7.18514079,8.36320071 7.0222168,8.19604492 C6.85929281,8.02888914 6.77783203,7.84798274 6.77783203,7.65332031 Z M10.0099668,15 C9.73975502,15 9.50387698,14.9119295 9.30232558,14.735786 C9.10077419,14.5596424 9,14.313268 9,13.9966555 C9,13.7157177 9.09745196,13.4793767 9.2923588,13.2876254 C9.48726565,13.0958742 9.72646591,13 10.0099668,13 C10.2890379,13 10.5238086,13.0958742 10.7142857,13.2876254 C10.9047629,13.4793767 11,13.7157177 11,13.9966555 C11,14.3088087 10.9003332,14.5540682 10.7009967,14.7324415 C10.5016601,14.9108147 10.2713191,15 10.0099668,15 Z"/>
  </g>
</svg>
