<svg xmlns="http://www.w3.org/2000/svg" width="20" height="20" viewBox="0 0 20 20">
  <path fill="#999" d="M10,20 C4.4771525,20 0,15.5228475 0,10 C0,4.4771525 4.4771525,0 10,0 C15.5228475,0 20,4.4771525 20,10 C20,15.5228475 15.5228475,20 10,20 Z M10,8 C8.8954305,8 8,8.84275812 8,9.88235294 L8,16.1176471 C8,17.1572419 8.8954305,18 10,18 C11.1045695,18 12,17.1572419 12,16.1176471 L12,9.88235294 C12,8.84275812 11.1045695,8 10,8 Z M10,3 C8.8954305,3 8,3.88165465 8,4.96923077 L8,5.03076923 C8,6.11834535 8.8954305,7 10,7 C11.1045695,7 12,6.11834535 12,5.03076923 L12,4.96923077 C12,3.88165465 11.1045695,3 10,3 Z"/>
</svg>
