<svg xmlns="http://www.w3.org/2000/svg" width="16" height="15" viewBox="0 0 16 15">
  <path fill="#999" fill-rule="evenodd" d="M7.2316214,0.589457796 C7.65655115,-0.194050515 8.34285878,-0.198917581 8.77042815,0.589457796 L15.8164723,13.5813327 C16.241402,14.364841 15.9022076,15 15.069711,15 L0.93233858,15 C0.0949839574,15 -0.241992079,14.3697081 0.185577286,13.5813327 L7.2316214,0.589457796 Z M8,1.78092674 L1.5681124,13.6956522 L14.432792,13.6956522 L8,1.78092674 Z M8,4.6875 C8.42483442,4.6875 8.76923077,5.03189635 8.76923077,5.45673077 L8.76923077,9.23076923 C8.76923077,9.65560365 8.42483442,10 8,10 C7.57516558,10 7.23076923,9.65560365 7.23076923,9.23076923 L7.23076923,5.45673077 C7.23076923,5.03189635 7.57516558,4.6875 8,4.6875 Z M8,10.625 C8.50980131,10.625 8.92307692,11.0382756 8.92307692,11.5480769 L8.92307692,11.5769231 C8.92307692,12.0867244 8.50980131,12.5 8,12.5 C7.49019869,12.5 7.07692308,12.0867244 7.07692308,11.5769231 L7.07692308,11.5480769 C7.07692308,11.0382756 7.49019869,10.625 8,10.625 Z"/>
</svg>
